<svg width="24" height="24" viewBox="0 0 24 24" fill="none" xmlns="http://www.w3.org/2000/svg">
<path d="M24.0002 11.9992C24.0002 5.37225 18.6279 0 12 0C5.37242 0 0 5.37225 0 11.9992C0 18.6262 5.37242 24 12 24C18.6281 24 24.0002 18.6262 24.0002 11.9992Z" fill="#395196"/>
<path d="M13.0573 9.15752V8.02084C13.0573 7.4672 13.4268 7.33786 13.6855 7.33786C13.945 7.33786 15.2809 7.33786 15.2809 7.33786V4.90374L13.0844 4.89404C10.6464 4.89404 10.0928 6.71053 10.0928 7.87345V9.15752H8.68335V12.0009H10.105C10.105 15.2228 10.105 19.1077 10.105 19.1077H12.9475C12.9475 19.1077 12.9475 15.1832 12.9475 12.0009H15.0573L15.3168 9.15752H13.0573Z" fill="white"/>
</svg>
