<svg width="16" height="16" viewBox="0 0 16 16" fill="none" xmlns="http://www.w3.org/2000/svg">
<mask id="mask0_2_16023" style="mask-type:alpha" maskUnits="userSpaceOnUse" x="0" y="0" width="16" height="16">
<path d="M8 16C12.4183 16 16 12.4183 16 8C16 7.41157 15.9365 6.83798 15.8159 6.28571H8V9.6H12.4054C11.7516 11.4 10.0259 12.6857 8 12.6857C5.41215 12.6857 3.31429 10.5878 3.31429 8C3.31429 5.41215 5.41215 3.31429 8 3.31429C9.31909 3.31429 10.5109 3.85935 11.3624 4.73654L13.6945 2.38108C12.2439 0.911091 10.2284 0 8 0C3.58172 0 0 3.58172 0 8C0 12.4183 3.58172 16 8 16Z" fill="#C4C4C4"/>
</mask>
<g mask="url(#mask0_2_16023)">
<path d="M-5.14273 8.0293L0.000126194 3.65732L5.71441 8.11446L0.000126573 12.343L-5.14273 8.0293Z" fill="#FEBD01"/>
<path d="M9.15527e-05 3.65723L6.45723 -2.79992L13.4287 -0.285631L16.4572 5.0858L7.82866 5.42865L5.71438 8.11437L9.15527e-05 3.65723Z" fill="#FF4131"/>
<path d="M7.65723 5.94293L16.9144 5.71436L16.8001 9.82864L14.5144 14.7429L9.82866 11.0858L7.65723 10.0572V5.94293Z" fill="#0286F7"/>
<path d="M9.15527e-05 12.3433L5.71438 8.11475L6.34295 10.9719L9.82866 11.0862L14.5144 14.7433L9.77152 16.8005L3.88581 16.4576L9.15527e-05 12.3433Z" fill="#01A94D"/>
</g>
</svg>
