<svg width="24" height="24" viewBox="0 0 24 24" fill="none" xmlns="http://www.w3.org/2000/svg">
<path d="M11.9988 0C5.37276 0 0 5.37276 0 12.0013C0 18.6276 5.37276 24 11.9988 24C18.6252 24 23.9978 18.6276 23.9978 12.0013C23.9978 5.37276 18.6252 0 11.9988 0Z" fill="url(#paint0_linear_2_16035)"/>
<path d="M11.9989 16.2846C14.3617 16.2846 16.284 14.3633 16.284 12.0013C16.284 9.63803 14.3617 7.71533 11.9989 7.71533C9.63608 7.71533 7.71388 9.63803 7.71388 12.0013C7.71388 14.3631 9.63625 16.2846 11.9989 16.2846ZM8.75325 12.0013C8.75325 10.2103 10.2092 8.7532 11.9989 8.7532C13.7886 8.7532 15.2447 10.2103 15.2447 12.0013C15.2447 13.791 13.7886 15.2471 11.9989 15.2471C10.2092 15.2471 8.75325 13.791 8.75325 12.0013Z" fill="white"/>
<path d="M16.2725 19.1178H7.72537C6.12125 19.1178 4.81619 17.8127 4.81619 16.2086V7.79198C4.81619 6.18786 6.12125 4.88281 7.72537 4.88281H16.2725C17.8766 4.88281 19.1816 6.18786 19.1816 7.79198V16.2086C19.1816 17.8127 17.8766 19.1178 16.2725 19.1178ZM7.72537 5.94421C6.70669 5.94421 5.87759 6.77314 5.87759 7.79198V16.2086C5.87759 17.2273 6.70652 18.0564 7.72537 18.0564H16.2725C17.2912 18.0564 18.1202 17.2274 18.1202 16.2086V7.79198C18.1202 6.77314 17.2913 5.94421 16.2725 5.94421H7.72537Z" fill="white"/>
<path d="M16.3422 7.22656C15.9676 7.22656 15.6658 7.53163 15.6658 7.90379C15.6658 8.27829 15.9676 8.57935 16.3422 8.57935C16.7142 8.57935 17.0193 8.27829 17.0193 7.90379C17.0193 7.53163 16.7142 7.22656 16.3422 7.22656Z" fill="white"/>
<defs>
<linearGradient id="paint0_linear_2_16035" x1="19.8714" y1="21.0565" x2="4.12652" y2="2.94412" gradientUnits="userSpaceOnUse">
<stop stop-color="#5D3FD2"/>
<stop offset="0.4244" stop-color="#B829A9"/>
<stop offset="0.5009" stop-color="#BE289D"/>
<stop offset="0.6383" stop-color="#D0257E"/>
<stop offset="0.7849" stop-color="#E62256"/>
<stop offset="0.8147" stop-color="#E83156"/>
<stop offset="0.8718" stop-color="#EE5755"/>
<stop offset="0.9495" stop-color="#F89554"/>
<stop offset="1" stop-color="#FFC153"/>
</linearGradient>
</defs>
</svg>
