<svg width="24" height="24" viewBox="0 0 24 24" fill="none" xmlns="http://www.w3.org/2000/svg">
<path d="M23.9998 12C23.9998 5.37234 18.6273 0 12.0007 0C5.37201 0 0 5.37218 0 12C0 18.6268 5.37217 24 12.0007 24C18.6275 24 23.9998 18.6268 23.9998 12Z" fill="#3D83D9"/>
<path d="M9.06427 9.07129H6.28644V17.0101H9.06427V9.07129Z" fill="white"/>
<path d="M7.67541 5.10205C6.80528 5.10205 6.12416 5.90166 6.32034 6.80237C6.43431 7.32558 6.8611 7.74619 7.38615 7.85164C8.28152 8.03144 9.06425 7.35366 9.06425 6.49105C9.06425 5.72519 8.44361 5.10205 7.67541 5.10205Z" fill="white"/>
<path d="M18.1939 11.5101C18.007 10.0138 17.2586 9.07129 15.2359 9.07129C13.8003 9.07129 13.2294 9.29521 12.9002 9.92187V9.07129H10.6515V17.0101H12.9657V12.8544C12.9657 11.817 13.1623 11.0335 14.445 11.0335C15.7093 11.0335 15.8109 11.9978 15.8109 12.9218V17.0102H18.194C18.1939 17.0102 18.238 11.8598 18.1939 11.5101Z" fill="white"/>
</svg>
