<svg width="100" height="20" viewBox="0 0 100 20" fill="none" xmlns="http://www.w3.org/2000/svg">
<path d="M9.04458 3.09181C9.33495 2.15214 10.665 2.15213 10.9554 3.09181L12.1429 6.93456C12.2724 7.35357 12.6598 7.63932 13.0983 7.63932H17.0437C18.0002 7.63932 18.4109 8.8533 17.6508 9.43397L14.374 11.9372C14.0409 12.1916 13.9019 12.6267 14.0256 13.0271L15.2566 17.0108C15.5441 17.941 14.4678 18.6918 13.6941 18.1007L10.6071 15.7424C10.2487 15.4686 9.75134 15.4686 9.39294 15.7424L6.30585 18.1007C5.53216 18.6918 4.45591 17.941 4.74337 17.0108L5.9744 13.0271C6.09813 12.6267 5.95906 12.1916 5.62604 11.9372L2.34923 9.43398C1.58912 8.8533 1.99976 7.63932 2.9563 7.63932H6.90168C7.34024 7.63932 7.72762 7.35357 7.8571 6.93456L9.04458 3.09181Z" fill="#EA6A12"/>
<path d="M29.0446 3.09181C29.335 2.15214 30.665 2.15213 30.9554 3.09181L32.1429 6.93456C32.2724 7.35357 32.6598 7.63932 33.0983 7.63932H37.0437C38.0002 7.63932 38.4109 8.8533 37.6508 9.43397L34.374 11.9372C34.0409 12.1916 33.9019 12.6267 34.0256 13.0271L35.2566 17.0108C35.5441 17.941 34.4678 18.6918 33.6941 18.1007L30.6071 15.7424C30.2487 15.4686 29.7513 15.4686 29.3929 15.7424L26.3059 18.1007C25.5322 18.6918 24.4559 17.941 24.7434 17.0108L25.9744 13.0271C26.0981 12.6267 25.9591 12.1916 25.626 11.9372L22.3492 9.43398C21.5891 8.8533 21.9998 7.63932 22.9563 7.63932H26.9017C27.3402 7.63932 27.7276 7.35357 27.8571 6.93456L29.0446 3.09181Z" fill="#EA6A12"/>
<path d="M49.0446 3.09181C49.335 2.15214 50.665 2.15213 50.9554 3.09181L52.1429 6.93456C52.2724 7.35357 52.6598 7.63932 53.0983 7.63932H57.0437C58.0002 7.63932 58.4109 8.8533 57.6508 9.43397L54.374 11.9372C54.0409 12.1916 53.9019 12.6267 54.0256 13.0271L55.2566 17.0108C55.5441 17.941 54.4678 18.6918 53.6941 18.1007L50.6071 15.7424C50.2487 15.4686 49.7513 15.4686 49.3929 15.7424L46.3059 18.1007C45.5322 18.6918 44.4559 17.941 44.7434 17.0108L45.9744 13.0271C46.0981 12.6267 45.9591 12.1916 45.626 11.9372L42.3492 9.43398C41.5891 8.8533 41.9998 7.63932 42.9563 7.63932H46.9017C47.3402 7.63932 47.7276 7.35357 47.8571 6.93456L49.0446 3.09181Z" fill="#EA6A12"/>
<path d="M69.5225 3.23926C69.6678 2.76969 70.3322 2.7697 70.4775 3.23926L71.665 7.08203C71.8593 7.71054 72.4408 8.13965 73.0986 8.13965H77.0439C77.522 8.13985 77.7276 8.74681 77.3477 9.03711L74.0703 11.54C73.5709 11.9217 73.3623 12.5743 73.5479 13.1748L74.7793 17.1582C74.923 17.6233 74.3849 17.9985 73.998 17.7031L70.9102 15.3447C70.3727 14.9345 69.6273 14.9345 69.0898 15.3447L66.002 17.7031C65.6151 17.9985 65.077 17.6233 65.2207 17.1582L66.4521 13.1748C66.6377 12.5743 66.4291 11.9217 65.9297 11.54L62.6523 9.03711C62.2724 8.74681 62.478 8.13985 62.9561 8.13965H66.9014C67.5592 8.13965 68.1407 7.71054 68.335 7.08203L69.5225 3.23926Z" stroke="#EA6A12"/>
<path d="M89.5225 3.23926C89.6678 2.76969 90.3322 2.7697 90.4775 3.23926L91.665 7.08203C91.8593 7.71054 92.4408 8.13965 93.0986 8.13965H97.0439C97.522 8.13985 97.7276 8.74681 97.3477 9.03711L94.0703 11.54C93.5709 11.9217 93.3623 12.5743 93.5479 13.1748L94.7793 17.1582C94.923 17.6233 94.3849 17.9985 93.998 17.7031L90.9102 15.3447C90.3727 14.9345 89.6273 14.9345 89.0898 15.3447L86.002 17.7031C85.6151 17.9985 85.077 17.6233 85.2207 17.1582L86.4521 13.1748C86.6377 12.5743 86.4291 11.9217 85.9297 11.54L82.6523 9.03711C82.2724 8.74681 82.478 8.13985 82.9561 8.13965H86.9014C87.5592 8.13965 88.1407 7.71054 88.335 7.08203L89.5225 3.23926Z" stroke="#EA6A12"/>
</svg>
